<svg width="1440" height="1316" viewBox="0 0 1440 1316" fill="none" xmlns="http://www.w3.org/2000/svg">
<rect x="0.5" y="0.5" width="1439" height="1315" fill="white"/>
<path d="M390.033 384.805H171.487C168.739 398.205 221.007 401.857 247.484 402.008C252.494 400.499 268.197 386.864 281.833 393.859C297.719 402.008 376.722 402.008 390.033 384.805Z" fill="#847575" stroke="#847575"/>
<path d="M172.773 384.798C172.773 229.523 388.314 228.613 388.314 384.798H172.773Z" fill="#C5E8F0" stroke="#C5E8F0"/>
<path d="M205.516 336.96C205.087 335.3 206.203 331.075 214.104 327.453C222.004 323.831 310.138 325.944 353.217 327.453C356.339 327.882 362.346 330.185 362.663 335.984C362.68 336.299 362.681 336.624 362.663 336.96C362.478 340.477 362.451 349.595 362.488 359.144C362.519 367.299 362.597 375.767 362.663 381.328H349.782C347.349 377.857 341.281 372.997 336.472 381.328H231.278C229.274 377.555 224.151 372.273 219.685 381.328H205.516V356.881V336.96Z" fill="#FFC93E"/>
<path d="M205.516 336.96C205.087 335.3 206.203 331.075 214.104 327.453C222.004 323.831 310.138 325.944 353.217 327.453C356.339 327.882 362.346 330.185 362.663 335.984M205.516 336.96V356.881M205.516 336.96L284.09 336.472M362.663 335.984C362.68 336.299 362.681 336.624 362.663 336.96C362.478 340.477 362.451 349.595 362.488 359.144M362.663 335.984L284.09 336.472M362.488 359.144C362.519 367.299 362.597 375.767 362.663 381.328H349.782C347.349 377.857 341.281 372.997 336.472 381.328H231.278C229.274 377.555 224.151 372.273 219.685 381.328H205.516V356.881M362.488 359.144L284.002 358.013M205.516 356.881L284.002 358.013M284.002 358.013L284.09 336.472" stroke="#FFC93E"/>
<path d="M362.663 335.148V356.427H323.591H284.519H245.447H206.375V335.148H245.447H284.519H323.591H362.663Z" fill="#EFEFEF"/>
<path d="M284.519 356.427V335.148M284.519 356.427H245.447M284.519 356.427H323.591M284.519 335.148H245.447M284.519 335.148H323.591M245.447 335.148H206.375V356.427H245.447M245.447 335.148V356.427M323.591 356.427H362.663V335.148H323.591M323.591 356.427V335.148" stroke="black"/>
<ellipse cx="224.832" cy="381.331" rx="5.58172" ry="5.43275" fill="black"/>
<ellipse cx="342.48" cy="381.331" rx="5.58172" ry="5.43275" fill="black"/>
<path d="M205.945 366.391H361.804" stroke="black" stroke-width="16"/>
<path d="M206.375 371.367H362.234" stroke="black" stroke-width="16"/>
<path d="M362.227 365.031C364.946 366.389 368.753 369.649 362.227 371.822V365.031Z" fill="#F3F4AA" stroke="black"/>
<line y1="-3.5" x2="44.0972" y2="-3.5" transform="matrix(0.851965 0.523598 -0.483782 0.875189 277.383 280.453)" stroke="white" stroke-width="7"/>
<path d="M278.672 302.189L314.31 275.024" stroke="white" stroke-width="7"/>
<line x1="301.922" y1="268.234" x2="301.922" y2="311.244" stroke="white" stroke-width="7"/>
<line x1="319.438" y1="293.234" x2="277.431" y2="293.234" stroke="white" stroke-width="7"/>
<path d="M297.776 308.07C307.261 308.07 314.951 299.962 314.951 289.961C314.951 279.959 307.261 271.852 297.776 271.852C288.291 271.852 280.602 279.959 280.602 289.961C280.602 299.962 288.291 308.07 297.776 308.07Z" fill="url(#paint0_radial_25_108)"/>
<path d="M224.93 290.617C229.366 291.221 238.24 293.062 238.24 295.597C239.528 293.937 243.908 290.617 251.121 290.617" stroke="black" stroke-width="11"/>
<path d="M224.93 290.617C229.366 291.221 238.24 293.062 238.24 295.597C239.528 293.937 243.908 290.617 251.121 290.617" stroke="black" stroke-width="11"/>
<path d="M251.117 280.203C255.554 280.807 264.427 282.648 264.427 285.183C265.716 283.523 270.095 280.203 277.308 280.203" stroke="black" stroke-width="11"/>
<path d="M251.117 297.18C255.554 297.783 264.427 299.624 264.427 302.16C265.716 300.5 270.095 297.18 277.308 297.18" stroke="black" stroke-width="11"/>
<path d="M1156.6 607.234H988.814C986.705 618.848 1026.83 622.013 1047.16 622.144C1051.01 620.836 1063.06 609.019 1073.53 615.082C1085.73 622.144 1146.38 622.144 1156.6 607.234Z" fill="#847575" stroke="#847575"/>
<path d="M989.805 607.225C989.805 472.653 1155.28 471.864 1155.28 607.225H989.805Z" fill="#C5E8F0" stroke="#C5E8F0"/>
<path d="M1014.94 565.77C1014.61 564.331 1015.47 560.669 1021.54 557.53C1027.6 554.391 1095.27 556.222 1128.34 557.53C1130.74 557.902 1135.35 559.898 1135.59 564.924C1135.6 565.197 1135.61 565.479 1135.59 565.77C1135.45 568.817 1135.43 576.72 1135.46 584.996C1135.48 592.063 1135.54 599.402 1135.59 604.222H1125.7C1123.83 601.213 1119.18 597.002 1115.48 604.222H1034.72C1033.18 600.952 1029.25 596.374 1025.82 604.222H1014.94V583.034V565.77Z" fill="#FFC93E"/>
<path d="M1014.94 565.77C1014.61 564.331 1015.47 560.669 1021.54 557.53C1027.6 554.391 1095.27 556.222 1128.34 557.53C1130.74 557.902 1135.35 559.898 1135.59 564.924M1014.94 565.77V583.034M1014.94 565.77L1075.27 565.347M1135.59 564.924C1135.6 565.197 1135.61 565.479 1135.59 565.77C1135.45 568.817 1135.43 576.72 1135.46 584.996M1135.59 564.924L1075.27 565.347M1135.46 584.996C1135.48 592.063 1135.54 599.402 1135.59 604.222H1125.7C1123.83 601.213 1119.18 597.002 1115.48 604.222H1034.72C1033.18 600.952 1029.25 596.374 1025.82 604.222H1014.94V583.034M1135.46 584.996L1075.2 584.015M1014.94 583.034L1075.2 584.015M1075.2 584.015L1075.27 565.347" stroke="#FFC93E"/>
<path d="M1135.59 564.195V582.636H1105.59H1075.6H1045.6H1015.6V564.195H1045.6H1075.6H1105.59H1135.59Z" fill="#EFEFEF"/>
<path d="M1075.6 582.636V564.195M1075.6 582.636H1045.6M1075.6 582.636H1105.59M1075.6 564.195H1045.6M1075.6 564.195H1105.59M1045.6 564.195H1015.6V582.636H1045.6M1045.6 564.195V582.636M1105.59 582.636H1135.59V564.195H1105.59M1105.59 582.636V564.195" stroke="black"/>
<ellipse cx="1029.78" cy="604.224" rx="4.28532" ry="4.70839" fill="black"/>
<ellipse cx="1120.1" cy="604.224" rx="4.28532" ry="4.70839" fill="black"/>
<path d="M1015.27 591.273H1134.93" stroke="black" stroke-width="16"/>
<path d="M1015.6 595.586H1135.26" stroke="black" stroke-width="16"/>
<path d="M1135.26 590.094C1137.35 591.271 1140.27 594.096 1135.26 595.979V590.094Z" fill="#F3F4AA" stroke="black"/>
<line y1="-3.5" x2="35.1052" y2="-3.5" transform="matrix(0.821631 0.57002 -0.439782 0.898104 1070.13 516.797)" stroke="white" stroke-width="7"/>
<path d="M1071.12 535.632L1098.48 512.089" stroke="white" stroke-width="7"/>
<line x1="1089.78" y1="506.203" x2="1089.78" y2="543.478" stroke="white" stroke-width="7"/>
<line x1="1102.41" y1="528.336" x2="1070.16" y2="528.336" stroke="white" stroke-width="7"/>
<path d="M1085.79 540.725C1093.07 540.725 1098.97 533.698 1098.97 525.031C1098.97 516.363 1093.07 509.336 1085.79 509.336C1078.5 509.336 1072.6 516.363 1072.6 525.031C1072.6 533.698 1078.5 540.725 1085.79 540.725Z" fill="url(#paint1_radial_25_108)"/>
<path d="M1029.85 525.602C1033.26 526.125 1040.07 527.72 1040.07 529.918C1041.06 528.479 1044.42 525.602 1049.96 525.602" stroke="black" stroke-width="11"/>
<path d="M1029.85 525.602C1033.26 526.125 1040.07 527.72 1040.07 529.918C1041.06 528.479 1044.42 525.602 1049.96 525.602" stroke="black" stroke-width="11"/>
<path d="M1049.96 516.578C1053.37 517.101 1060.18 518.697 1060.18 520.894C1061.17 519.455 1064.53 516.578 1070.07 516.578" stroke="black" stroke-width="11"/>
<path d="M1049.96 531.289C1053.37 531.812 1060.18 533.408 1060.18 535.605C1061.17 534.166 1064.53 531.289 1070.07 531.289" stroke="black" stroke-width="11"/>
<path d="M871.839 480.656H658.235C655.549 493.925 706.635 497.542 732.514 497.691C737.41 496.197 752.758 482.696 766.086 489.622C781.613 497.691 858.83 497.691 871.839 480.656Z" fill="#847575" stroke="#847575"/>
<path d="M659.492 480.652C659.492 326.9 870.159 325.999 870.159 480.652H659.492Z" fill="#C5E8F0" stroke="#C5E8F0"/>
<path d="M691.491 433.277C691.071 431.633 692.163 427.449 699.884 423.863C707.606 420.277 793.747 422.369 835.853 423.863C838.904 424.288 844.775 426.568 845.085 432.311C845.102 432.622 845.102 432.944 845.085 433.277C844.904 436.759 844.878 445.788 844.914 455.243C844.944 463.318 845.021 471.703 845.085 477.209H832.495C830.117 473.772 824.186 468.96 819.486 477.209H716.67C714.712 473.473 709.704 468.243 705.34 477.209H691.491V453.002V433.277Z" fill="#FFC93E"/>
<path d="M691.491 433.277C691.071 431.633 692.163 427.449 699.884 423.863C707.606 420.277 793.747 422.369 835.853 423.863C838.904 424.288 844.775 426.568 845.085 432.311M691.491 433.277V453.002M691.491 433.277L768.288 432.794M845.085 432.311C845.102 432.622 845.102 432.944 845.085 433.277C844.904 436.759 844.878 445.788 844.914 455.243M845.085 432.311L768.288 432.794M844.914 455.243C844.944 463.318 845.021 471.703 845.085 477.209H832.495C830.117 473.772 824.186 468.96 819.486 477.209H716.67C714.712 473.473 709.704 468.243 705.34 477.209H691.491V453.002M844.914 455.243L768.202 454.123M691.491 453.002L768.202 454.123M768.202 454.123L768.288 432.794" stroke="#FFC93E"/>
<path d="M845.083 431.484V452.554H806.894H768.705H730.517H692.328V431.484H730.517H768.705H806.894H845.083Z" fill="#EFEFEF"/>
<path d="M768.705 452.554V431.484M768.705 452.554H730.517M768.705 452.554H806.894M768.705 431.484H730.517M768.705 431.484H806.894M730.517 431.484H692.328V452.554H730.517M730.517 431.484V452.554M806.894 452.554H845.083V431.484H806.894M806.894 452.554V431.484" stroke="black"/>
<ellipse cx="710.377" cy="477.215" rx="5.45552" ry="5.37942" fill="black"/>
<ellipse cx="825.362" cy="477.215" rx="5.45552" ry="5.37942" fill="black"/>
<path d="M691.914 462.422H844.249" stroke="black" stroke-width="16"/>
<path d="M692.328 467.352H844.663" stroke="black" stroke-width="16"/>
<path d="M844.664 461.07C847.322 462.415 851.043 465.643 844.664 467.795V461.07Z" fill="#F3F4AA" stroke="black"/>
<line y1="-3.5" x2="43.2556" y2="-3.5" transform="matrix(0.848905 0.528546 -0.478973 0.87783 761.734 377.328)" stroke="white" stroke-width="7"/>
<path d="M762.992 398.849L797.823 371.951" stroke="white" stroke-width="7"/>
<line x1="785.797" y1="365.227" x2="785.797" y2="407.814" stroke="white" stroke-width="7"/>
<line x1="802.828" y1="390.016" x2="761.771" y2="390.016" stroke="white" stroke-width="7"/>
<path d="M781.669 404.675C790.94 404.675 798.455 396.647 798.455 386.744C798.455 376.841 790.94 368.812 781.669 368.812C772.398 368.812 764.883 376.841 764.883 386.744C764.883 396.647 772.398 404.675 781.669 404.675Z" fill="url(#paint2_radial_25_108)"/>
<path d="M710.469 387.383C714.805 387.981 723.478 389.804 723.478 392.314C724.737 390.67 729.018 387.383 736.068 387.383" stroke="black" stroke-width="11"/>
<path d="M710.469 387.383C714.805 387.981 723.478 389.804 723.478 392.314C724.737 390.67 729.018 387.383 736.068 387.383" stroke="black" stroke-width="11"/>
<path d="M736.062 377.078C740.399 377.676 749.072 379.499 749.072 382.009C750.331 380.366 754.611 377.078 761.661 377.078" stroke="black" stroke-width="11"/>
<path d="M736.062 393.891C740.399 394.488 749.072 396.311 749.072 398.822C750.331 397.178 754.611 393.891 761.661 393.891" stroke="black" stroke-width="11"/>
<path d="M568.832 961.656H355.227C352.541 974.925 403.627 978.542 429.506 978.691C434.402 977.197 449.75 963.696 463.078 970.622C478.605 978.691 555.822 978.691 568.832 961.656Z" fill="#847575" stroke="#847575"/>
<path d="M356.484 961.652C356.484 807.9 567.151 806.999 567.151 961.652H356.484Z" fill="#C5E8F0" stroke="#C5E8F0"/>
<path d="M388.483 914.269C388.064 912.625 389.155 908.441 396.876 904.855C404.598 901.269 490.739 903.361 532.845 904.855C535.896 905.28 541.767 907.56 542.077 913.303C542.094 913.615 542.095 913.937 542.077 914.269C541.896 917.751 541.87 926.78 541.906 936.235C541.936 944.31 542.013 952.695 542.077 958.201H529.488C527.11 954.764 521.178 949.952 516.478 958.201H413.663C411.704 954.465 406.696 949.235 402.332 958.201H388.483V933.994V914.269Z" fill="#FFC93E"/>
<path d="M388.483 914.269C388.064 912.625 389.155 908.441 396.876 904.855C404.598 901.269 490.739 903.361 532.845 904.855C535.896 905.28 541.767 907.56 542.077 913.303M388.483 914.269V933.994M388.483 914.269L465.28 913.786M542.077 913.303C542.094 913.615 542.095 913.937 542.077 914.269C541.896 917.751 541.87 926.78 541.906 936.235M542.077 913.303L465.28 913.786M541.906 936.235C541.936 944.31 542.013 952.695 542.077 958.201H529.488C527.11 954.764 521.178 949.952 516.478 958.201H413.663C411.704 954.465 406.696 949.235 402.332 958.201H388.483V933.994M541.906 936.235L465.195 935.115M388.483 933.994L465.195 935.115M465.195 935.115L465.28 913.786" stroke="#FFC93E"/>
<path d="M542.075 912.477V933.546H503.886H465.698H427.509H389.32V912.477H427.509H465.698H503.886H542.075Z" fill="#EFEFEF"/>
<path d="M465.698 933.546V912.477M465.698 933.546H427.509M465.698 933.546H503.886M465.698 912.477H427.509M465.698 912.477H503.886M427.509 912.477H389.32V933.546H427.509M427.509 912.477V933.546M503.886 933.546H542.075V912.477H503.886M503.886 933.546V912.477" stroke="black"/>
<ellipse cx="407.37" cy="958.208" rx="5.45552" ry="5.37942" fill="black"/>
<ellipse cx="522.354" cy="958.208" rx="5.45552" ry="5.37942" fill="black"/>
<path d="M388.906 943.414H541.241" stroke="black" stroke-width="16"/>
<path d="M389.32 948.344H541.655" stroke="black" stroke-width="16"/>
<path d="M541.656 942.062C544.314 943.407 548.035 946.635 541.656 948.787V942.062Z" fill="#F3F4AA" stroke="black"/>
<line y1="-3.5" x2="43.2556" y2="-3.5" transform="matrix(0.848905 0.528546 -0.478973 0.87783 458.742 858.328)" stroke="white" stroke-width="7"/>
<path d="M459.999 879.849L494.831 852.951" stroke="white" stroke-width="7"/>
<line x1="482.805" y1="846.227" x2="482.805" y2="888.814" stroke="white" stroke-width="7"/>
<line x1="499.836" y1="871.016" x2="458.779" y2="871.016" stroke="white" stroke-width="7"/>
<path d="M478.669 885.668C487.94 885.668 495.455 877.639 495.455 867.736C495.455 857.833 487.94 849.805 478.669 849.805C469.398 849.805 461.883 857.833 461.883 867.736C461.883 877.639 469.398 885.668 478.669 885.668Z" fill="url(#paint3_radial_25_108)"/>
<path d="M407.461 868.383C411.797 868.981 420.47 870.804 420.47 873.314C421.729 871.67 426.01 868.383 433.06 868.383" stroke="black" stroke-width="11"/>
<path d="M407.461 868.383C411.797 868.981 420.47 870.804 420.47 873.314C421.729 871.67 426.01 868.383 433.06 868.383" stroke="black" stroke-width="11"/>
<path d="M433.055 858.078C437.391 858.676 446.064 860.499 446.064 863.009C447.323 861.366 451.603 858.078 458.654 858.078" stroke="black" stroke-width="11"/>
<path d="M433.055 874.891C437.391 875.488 446.064 877.311 446.064 879.822C447.323 878.178 451.603 874.891 458.654 874.891" stroke="black" stroke-width="11"/>
<path d="M594 690.447C603.957 668.984 621.657 621.396 612.807 602.745C603.957 584.095 596.581 569.811 594 565L658.164 627.169L621.657 581.652C638.625 593.376 669.776 615.964 688.237 632.454C680.283 622.988 670.72 611.361 663.696 602.745C682.829 615.65 719.837 642.584 735.916 660.729C727.776 646.972 717.021 627.169 720.116 627.169C725.647 627.169 767.686 666.024 777.642 684.897C785.608 699.995 658.533 694.888 594 690.447Z" fill="url(#paint4_linear_25_108)"/>
<path d="M594 690.447C603.957 668.984 621.657 621.396 612.807 602.745C603.957 584.095 596.581 569.811 594 565L658.164 627.169L621.657 581.652C644.151 597.194 691.574 631.831 701.309 646.041C711.044 660.251 680.29 623.098 663.696 602.745C686.19 617.917 733.391 652.48 742.241 669.354C753.304 690.447 714.584 627.169 720.116 627.169C725.647 627.169 767.686 666.024 777.642 684.897C785.608 699.995 658.533 694.888 594 690.447Z" stroke="url(#paint5_linear_25_108)" stroke-width="11"/>
<path d="M1033 944.33C1042.96 922.867 1060.66 875.279 1051.81 856.628C1042.96 837.977 1035.58 823.693 1033 818.883L1097.16 881.051L1060.66 835.535C1077.62 847.259 1108.78 869.847 1127.24 886.337C1119.28 876.871 1109.72 865.244 1102.7 856.628C1121.83 869.533 1158.84 896.467 1174.92 914.612C1166.78 900.855 1156.02 881.051 1159.12 881.051C1164.65 881.051 1206.69 919.907 1216.64 938.779C1224.61 953.878 1097.53 948.771 1033 944.33Z" fill="url(#paint6_linear_25_108)"/>
<path d="M1033 944.33C1042.96 922.867 1060.66 875.279 1051.81 856.628C1042.96 837.977 1035.58 823.693 1033 818.883L1097.16 881.051L1060.66 835.535C1083.15 851.077 1130.57 885.714 1140.31 899.924C1150.04 914.134 1119.29 876.981 1102.7 856.628C1125.19 871.8 1172.39 906.363 1181.24 923.237C1192.3 944.33 1153.58 881.051 1159.12 881.051C1164.65 881.051 1206.69 919.907 1216.64 938.779C1224.61 953.878 1097.53 948.771 1033 944.33Z" stroke="url(#paint7_linear_25_108)" stroke-width="11"/>
<path d="M613 1208.33C622.957 1186.87 640.657 1139.28 631.807 1120.63C622.957 1101.98 615.581 1087.69 613 1082.88L677.164 1145.05L640.657 1099.54C657.625 1111.26 688.776 1133.85 707.237 1150.34C699.283 1140.87 689.72 1129.24 682.696 1120.63C701.829 1133.53 738.837 1160.47 754.916 1178.61C746.776 1164.85 736.021 1145.05 739.116 1145.05C744.647 1145.05 786.686 1183.91 796.642 1202.78C804.608 1217.88 677.533 1212.77 613 1208.33Z" fill="url(#paint8_linear_25_108)"/>
<path d="M613 1208.33C622.957 1186.87 640.657 1139.28 631.807 1120.63C622.957 1101.98 615.581 1087.69 613 1082.88L677.164 1145.05L640.657 1099.54C663.151 1115.08 710.574 1149.71 720.309 1163.92C730.044 1178.13 699.29 1140.98 682.696 1120.63C705.19 1135.8 752.391 1170.36 761.241 1187.24C772.304 1208.33 733.584 1145.05 739.116 1145.05C744.647 1145.05 786.686 1183.91 796.642 1202.78C804.608 1217.88 677.533 1212.77 613 1208.33Z" stroke="url(#paint9_linear_25_108)" stroke-width="11"/>
<path d="M185 1184.33C194.957 1162.87 212.657 1115.28 203.807 1096.63C194.957 1077.98 187.581 1063.69 185 1058.88L249.164 1121.05L212.657 1075.54C229.625 1087.26 260.776 1109.85 279.237 1126.34C271.283 1116.87 261.72 1105.24 254.696 1096.63C273.829 1109.53 310.837 1136.47 326.916 1154.61C318.776 1140.85 308.021 1121.05 311.116 1121.05C316.647 1121.05 358.686 1159.91 368.642 1178.78C376.608 1193.88 249.533 1188.77 185 1184.33Z" fill="url(#paint10_linear_25_108)"/>
<path d="M185 1184.33C194.957 1162.87 212.657 1115.28 203.807 1096.63C194.957 1077.98 187.581 1063.69 185 1058.88L249.164 1121.05L212.657 1075.54C235.151 1091.08 282.574 1125.71 292.309 1139.92C302.044 1154.13 271.29 1116.98 254.696 1096.63C277.19 1111.8 324.391 1146.36 333.241 1163.24C344.304 1184.33 305.584 1121.05 311.116 1121.05C316.647 1121.05 358.686 1159.91 368.642 1178.78C376.608 1193.88 249.533 1188.77 185 1184.33Z" stroke="url(#paint11_linear_25_108)" stroke-width="11"/>
<path d="M742.148 802.977C781.875 807.323 783.152 877.865 778.825 912.593L806.915 912.593C807.921 872.455 796.378 794.339 742.148 802.977Z" fill="url(#paint12_linear_25_108)" stroke="url(#paint13_linear_25_108)" stroke-width="11"/>
<path d="M688.158 840.819C687.369 843.449 688.632 843.975 699.993 825.039C703.539 819.129 709.202 814.423 715.773 810.717C725.755 805.089 725.407 793.424 715.596 799.343C699.845 808.846 691.175 827.823 688.158 840.819Z" fill="url(#paint14_linear_25_108)" stroke="url(#paint15_linear_25_108)" stroke-width="11"/>
<path d="M755.933 799.312C753.21 799.669 753.247 801.036 775.175 803.649C782.019 804.465 788.631 807.704 794.702 812.183C803.924 818.985 814.424 813.892 805.007 807.364C789.888 796.884 769.025 796.744 755.933 799.312Z" fill="url(#paint16_linear_25_108)" stroke="url(#paint17_linear_25_108)" stroke-width="11"/>
<path d="M752.428 798.772C750.234 800.423 750.939 801.595 771.313 793.077C777.672 790.418 785.022 789.984 792.511 790.894C803.886 792.276 810.52 782.674 799.11 781.627C780.79 779.946 762.561 790.092 752.428 798.772Z" fill="url(#paint18_linear_25_108)" stroke="url(#paint19_linear_25_108)" stroke-width="11"/>
<path d="M741.609 802.633C739.944 805.525 741.196 806.502 759.521 787.283C765.241 781.284 772.963 777.306 781.401 774.767C794.64 770.784 797.684 756.873 784.573 761.261C764.174 768.089 748.849 788.104 741.609 802.633Z" fill="url(#paint20_linear_25_108)" stroke="url(#paint21_linear_25_108)" stroke-width="11"/>
<path d="M678.759 809.252C676.884 811.258 677.781 812.29 696.37 800.368C702.171 796.647 709.334 794.945 716.868 794.542C728.311 793.931 733.179 783.325 721.76 784.272C703.427 785.793 687.233 798.947 678.759 809.252Z" fill="url(#paint22_linear_25_108)" stroke="url(#paint23_linear_25_108)" stroke-width="11"/>
<path d="M742.439 785.476C703.228 734.627 695.342 728.603 742.395 785.461" stroke="url(#paint24_linear_25_108)" stroke-width="11"/>
<path d="M741.278 785.834C742.434 721.633 740.041 712.003 741.253 785.795" stroke="url(#paint25_linear_25_108)" stroke-width="11"/>
<path d="M710.465 863.237C710.594 866.96 712.703 866.884 720.099 836.801C722.407 827.412 728.408 818.296 736.231 809.896C746.979 798.359 740.901 784.005 730.455 795.816C711.964 816.723 708.528 845.336 710.465 863.237Z" fill="url(#paint26_linear_25_108)" stroke="url(#paint27_linear_25_108)" stroke-width="11"/>
<path d="M256.148 504.977C295.875 509.323 297.152 579.865 292.825 614.593L320.915 614.593C321.921 574.455 310.378 496.339 256.148 504.977Z" fill="url(#paint28_linear_25_108)" stroke="url(#paint29_linear_25_108)" stroke-width="11"/>
<path d="M202.158 542.819C201.369 545.449 202.632 545.975 213.993 527.039C217.539 521.129 223.202 516.423 229.773 512.717C239.755 507.089 239.407 495.424 229.596 501.343C213.845 510.846 205.175 529.823 202.158 542.819Z" fill="url(#paint30_linear_25_108)" stroke="url(#paint31_linear_25_108)" stroke-width="11"/>
<path d="M269.933 501.312C267.21 501.669 267.247 503.036 289.175 505.649C296.019 506.465 302.631 509.704 308.702 514.183C317.924 520.985 328.424 515.892 319.007 509.364C303.888 498.884 283.025 498.744 269.933 501.312Z" fill="url(#paint32_linear_25_108)" stroke="url(#paint33_linear_25_108)" stroke-width="11"/>
<path d="M266.428 500.772C264.234 502.423 264.939 503.595 285.313 495.077C291.672 492.418 299.022 491.984 306.511 492.894C317.886 494.276 324.52 484.674 313.11 483.627C294.79 481.946 276.561 492.092 266.428 500.772Z" fill="url(#paint34_linear_25_108)" stroke="url(#paint35_linear_25_108)" stroke-width="11"/>
<path d="M255.609 504.633C253.944 507.525 255.196 508.502 273.521 489.283C279.241 483.284 286.963 479.306 295.401 476.767C308.64 472.784 311.684 458.873 298.573 463.261C278.174 470.089 262.849 490.104 255.609 504.633Z" fill="url(#paint36_linear_25_108)" stroke="url(#paint37_linear_25_108)" stroke-width="11"/>
<path d="M192.759 511.252C190.884 513.258 191.781 514.29 210.37 502.368C216.171 498.647 223.334 496.945 230.868 496.542C242.311 495.931 247.179 485.325 235.76 486.272C217.427 487.793 201.233 500.947 192.759 511.252Z" fill="url(#paint38_linear_25_108)" stroke="url(#paint39_linear_25_108)" stroke-width="11"/>
<path d="M256.439 487.476C217.228 436.627 209.342 430.603 256.395 487.461" stroke="url(#paint40_linear_25_108)" stroke-width="11"/>
<path d="M255.278 487.834C256.434 423.633 254.041 414.003 255.253 487.795" stroke="url(#paint41_linear_25_108)" stroke-width="11"/>
<path d="M224.465 565.237C224.594 568.96 226.703 568.884 234.099 538.801C236.407 529.412 242.408 520.296 250.231 511.896C260.979 500.359 254.901 486.005 244.455 497.816C225.964 518.723 222.528 547.336 224.465 565.237Z" fill="url(#paint42_linear_25_108)" stroke="url(#paint43_linear_25_108)" stroke-width="11"/>
<path d="M1132.15 277.977C1171.87 282.323 1173.15 352.865 1168.83 387.593L1196.91 387.593C1197.92 347.455 1186.38 269.339 1132.15 277.977Z" fill="url(#paint44_linear_25_108)" stroke="url(#paint45_linear_25_108)" stroke-width="11"/>
<path d="M1078.16 315.819C1077.37 318.449 1078.63 318.975 1089.99 300.039C1093.54 294.129 1099.2 289.423 1105.77 285.717C1115.75 280.089 1115.41 268.424 1105.6 274.343C1089.84 283.846 1081.18 302.823 1078.16 315.819Z" fill="url(#paint46_linear_25_108)" stroke="url(#paint47_linear_25_108)" stroke-width="11"/>
<path d="M1145.93 274.312C1143.21 274.669 1143.25 276.036 1165.18 278.649C1172.02 279.465 1178.63 282.704 1184.7 287.183C1193.92 293.985 1204.42 288.892 1195.01 282.364C1179.89 271.884 1159.03 271.744 1145.93 274.312Z" fill="url(#paint48_linear_25_108)" stroke="url(#paint49_linear_25_108)" stroke-width="11"/>
<path d="M1142.43 273.772C1140.23 275.423 1140.94 276.595 1161.31 268.077C1167.67 265.418 1175.02 264.984 1182.51 265.894C1193.89 267.276 1200.52 257.674 1189.11 256.627C1170.79 254.946 1152.56 265.092 1142.43 273.772Z" fill="url(#paint50_linear_25_108)" stroke="url(#paint51_linear_25_108)" stroke-width="11"/>
<path d="M1131.61 277.633C1129.94 280.525 1131.2 281.502 1149.52 262.283C1155.24 256.284 1162.96 252.306 1171.4 249.767C1184.64 245.784 1187.68 231.873 1174.57 236.261C1154.17 243.089 1138.85 263.104 1131.61 277.633Z" fill="url(#paint52_linear_25_108)" stroke="url(#paint53_linear_25_108)" stroke-width="11"/>
<path d="M1068.76 284.252C1066.88 286.258 1067.78 287.29 1086.37 275.368C1092.17 271.647 1099.33 269.945 1106.87 269.542C1118.31 268.931 1123.18 258.325 1111.76 259.272C1093.43 260.793 1077.23 273.947 1068.76 284.252Z" fill="url(#paint54_linear_25_108)" stroke="url(#paint55_linear_25_108)" stroke-width="11"/>
<path d="M1132.44 260.476C1093.23 209.627 1085.34 203.603 1132.4 260.461" stroke="url(#paint56_linear_25_108)" stroke-width="11"/>
<path d="M1131.28 260.834C1132.43 196.633 1130.04 187.003 1131.25 260.795" stroke="url(#paint57_linear_25_108)" stroke-width="11"/>
<path d="M1100.46 338.237C1100.59 341.96 1102.7 341.884 1110.1 311.801C1112.41 302.412 1118.41 293.296 1126.23 284.896C1136.98 273.359 1130.9 259.005 1120.46 270.816C1101.96 291.723 1098.53 320.336 1100.46 338.237Z" fill="url(#paint58_linear_25_108)" stroke="url(#paint59_linear_25_108)" stroke-width="11"/>
<path d="M1097.15 989.977C1136.87 994.323 1138.15 1064.86 1133.83 1099.59L1161.91 1099.59C1162.92 1059.45 1151.38 981.339 1097.15 989.977Z" fill="url(#paint60_linear_25_108)" stroke="url(#paint61_linear_25_108)" stroke-width="11"/>
<path d="M1043.16 1027.82C1042.37 1030.45 1043.63 1030.98 1054.99 1012.04C1058.54 1006.13 1064.2 1001.42 1070.77 997.717C1080.75 992.089 1080.41 980.424 1070.6 986.343C1054.84 995.846 1046.18 1014.82 1043.16 1027.82Z" fill="url(#paint62_linear_25_108)" stroke="url(#paint63_linear_25_108)" stroke-width="11"/>
<path d="M1110.93 986.312C1108.21 986.669 1108.25 988.036 1130.18 990.649C1137.02 991.465 1143.63 994.704 1149.7 999.183C1158.92 1005.98 1169.42 1000.89 1160.01 994.364C1144.89 983.884 1124.03 983.744 1110.93 986.312Z" fill="url(#paint64_linear_25_108)" stroke="url(#paint65_linear_25_108)" stroke-width="11"/>
<path d="M1107.43 985.772C1105.23 987.423 1105.94 988.595 1126.31 980.077C1132.67 977.418 1140.02 976.984 1147.51 977.894C1158.89 979.276 1165.52 969.674 1154.11 968.627C1135.79 966.946 1117.56 977.092 1107.43 985.772Z" fill="url(#paint66_linear_25_108)" stroke="url(#paint67_linear_25_108)" stroke-width="11"/>
<path d="M1096.61 989.633C1094.94 992.525 1096.2 993.502 1114.52 974.283C1120.24 968.284 1127.96 964.306 1136.4 961.767C1149.64 957.784 1152.68 943.873 1139.57 948.261C1119.17 955.089 1103.85 975.104 1096.61 989.633Z" fill="url(#paint68_linear_25_108)" stroke="url(#paint69_linear_25_108)" stroke-width="11"/>
<path d="M1033.76 996.252C1031.88 998.258 1032.78 999.29 1051.37 987.368C1057.17 983.647 1064.33 981.945 1071.87 981.542C1083.31 980.931 1088.18 970.325 1076.76 971.272C1058.43 972.793 1042.23 985.947 1033.76 996.252Z" fill="url(#paint70_linear_25_108)" stroke="url(#paint71_linear_25_108)" stroke-width="11"/>
<path d="M1097.44 972.476C1058.23 921.627 1050.34 915.603 1097.4 972.461" stroke="url(#paint72_linear_25_108)" stroke-width="11"/>
<path d="M1096.28 972.834C1097.43 908.633 1095.04 899.003 1096.25 972.795" stroke="url(#paint73_linear_25_108)" stroke-width="11"/>
<path d="M1065.46 1050.24C1065.59 1053.96 1067.7 1053.88 1075.1 1023.8C1077.41 1014.41 1083.41 1005.3 1091.23 996.896C1101.98 985.359 1095.9 971.005 1085.46 982.816C1066.96 1003.72 1063.53 1032.34 1065.46 1050.24Z" fill="url(#paint74_linear_25_108)" stroke="url(#paint75_linear_25_108)" stroke-width="11"/>
<rect x="0.5" y="0.5" width="1439" height="1315" stroke="black"/>
<defs>
<radialGradient id="paint0_radial_25_108" cx="0" cy="0" r="1" gradientUnits="userSpaceOnUse" gradientTransform="translate(297.776 289.961) rotate(90) scale(18.1092 17.1745)">
<stop offset="0.225" stop-color="#FBFF3E"/>
<stop offset="1" stop-color="#EADC5F"/>
</radialGradient>
<radialGradient id="paint1_radial_25_108" cx="0" cy="0" r="1" gradientUnits="userSpaceOnUse" gradientTransform="translate(1085.79 525.031) rotate(90) scale(15.6946 13.1856)">
<stop offset="0.225" stop-color="#FBFF3E"/>
<stop offset="1" stop-color="#EADC5F"/>
</radialGradient>
<radialGradient id="paint2_radial_25_108" cx="0" cy="0" r="1" gradientUnits="userSpaceOnUse" gradientTransform="translate(781.669 386.744) rotate(90) scale(17.9314 16.7862)">
<stop offset="0.225" stop-color="#FBFF3E"/>
<stop offset="1" stop-color="#EADC5F"/>
</radialGradient>
<radialGradient id="paint3_radial_25_108" cx="0" cy="0" r="1" gradientUnits="userSpaceOnUse" gradientTransform="translate(478.669 867.736) rotate(90) scale(17.9314 16.7862)">
<stop offset="0.225" stop-color="#FBFF3E"/>
<stop offset="1" stop-color="#EADC5F"/>
</radialGradient>
<linearGradient id="paint4_linear_25_108" x1="662.589" y1="673.795" x2="648.111" y2="608.317" gradientUnits="userSpaceOnUse">
<stop offset="0.375744" stop-color="#BCCCE4"/>
<stop offset="1" stop-color="#BCCCE4" stop-opacity="0"/>
</linearGradient>
<linearGradient id="paint5_linear_25_108" x1="756.623" y1="700.439" x2="631.2" y2="582.09" gradientUnits="userSpaceOnUse">
<stop stop-color="#BCCCE4"/>
<stop offset="1" stop-color="#BCCCE4" stop-opacity="0.25"/>
</linearGradient>
<linearGradient id="paint6_linear_25_108" x1="1101.59" y1="927.678" x2="1087.11" y2="862.2" gradientUnits="userSpaceOnUse">
<stop offset="0.375744" stop-color="#BCCCE4"/>
<stop offset="1" stop-color="#BCCCE4" stop-opacity="0"/>
</linearGradient>
<linearGradient id="paint7_linear_25_108" x1="1195.62" y1="954.322" x2="1070.2" y2="835.973" gradientUnits="userSpaceOnUse">
<stop stop-color="#BCCCE4"/>
<stop offset="1" stop-color="#BCCCE4" stop-opacity="0.25"/>
</linearGradient>
<linearGradient id="paint8_linear_25_108" x1="681.589" y1="1191.68" x2="667.111" y2="1126.2" gradientUnits="userSpaceOnUse">
<stop offset="0.375744" stop-color="#BCCCE4"/>
<stop offset="1" stop-color="#BCCCE4" stop-opacity="0"/>
</linearGradient>
<linearGradient id="paint9_linear_25_108" x1="775.623" y1="1218.32" x2="650.2" y2="1099.97" gradientUnits="userSpaceOnUse">
<stop stop-color="#BCCCE4"/>
<stop offset="1" stop-color="#BCCCE4" stop-opacity="0.25"/>
</linearGradient>
<linearGradient id="paint10_linear_25_108" x1="253.589" y1="1167.68" x2="239.111" y2="1102.2" gradientUnits="userSpaceOnUse">
<stop offset="0.375744" stop-color="#BCCCE4"/>
<stop offset="1" stop-color="#BCCCE4" stop-opacity="0"/>
</linearGradient>
<linearGradient id="paint11_linear_25_108" x1="347.623" y1="1194.32" x2="222.2" y2="1075.97" gradientUnits="userSpaceOnUse">
<stop stop-color="#BCCCE4"/>
<stop offset="1" stop-color="#BCCCE4" stop-opacity="0.25"/>
</linearGradient>
<linearGradient id="paint12_linear_25_108" x1="804.153" y1="912.399" x2="749.317" y2="802.333" gradientUnits="userSpaceOnUse">
<stop offset="0.0567511" stop-color="#E76F01"/>
<stop offset="1" stop-color="#E76F01" stop-opacity="0"/>
</linearGradient>
<linearGradient id="paint13_linear_25_108" x1="797.156" y1="911.559" x2="742.118" y2="801.544" gradientUnits="userSpaceOnUse">
<stop stop-color="#E76F01"/>
<stop offset="0.208333" stop-color="#D27723" stop-opacity="0"/>
</linearGradient>
<linearGradient id="paint14_linear_25_108" x1="759.563" y1="797.818" x2="687.961" y2="838.846" gradientUnits="userSpaceOnUse">
<stop stop-color="#8ABD98" stop-opacity="0.54"/>
<stop offset="1" stop-color="#279F49"/>
</linearGradient>
<linearGradient id="paint15_linear_25_108" x1="720.483" y1="840.727" x2="719.309" y2="797.302" gradientUnits="userSpaceOnUse">
<stop stop-color="#279F49"/>
<stop offset="1" stop-color="#5BD223" stop-opacity="0"/>
</linearGradient>
<linearGradient id="paint16_linear_25_108" x1="822.227" y1="843.393" x2="757.652" y2="798.324" gradientUnits="userSpaceOnUse">
<stop stop-color="#279F49"/>
<stop offset="1" stop-color="#8ABD98" stop-opacity="0.54"/>
</linearGradient>
<linearGradient id="paint17_linear_25_108" x1="822.383" y1="841.774" x2="801.503" y2="784.768" gradientUnits="userSpaceOnUse">
<stop stop-color="#279F49"/>
<stop offset="1" stop-color="#5BD223" stop-opacity="0"/>
</linearGradient>
<linearGradient id="paint18_linear_25_108" x1="831.833" y1="804.514" x2="753.439" y2="797.066" gradientUnits="userSpaceOnUse">
<stop stop-color="#279F49"/>
<stop offset="1" stop-color="#8ABD98" stop-opacity="0.54"/>
</linearGradient>
<linearGradient id="paint19_linear_25_108" x1="831.172" y1="803.028" x2="784.938" y2="763.683" gradientUnits="userSpaceOnUse">
<stop stop-color="#279F49"/>
<stop offset="1" stop-color="#5BD223" stop-opacity="0"/>
</linearGradient>
<linearGradient id="paint20_linear_25_108" x1="829.426" y1="771.342" x2="740.713" y2="795.622" gradientUnits="userSpaceOnUse">
<stop stop-color="#279F49"/>
<stop offset="1" stop-color="#8ABD98" stop-opacity="0.54"/>
</linearGradient>
<linearGradient id="paint21_linear_25_108" x1="828.089" y1="769.992" x2="761.619" y2="748.442" gradientUnits="userSpaceOnUse">
<stop stop-color="#279F49"/>
<stop offset="1" stop-color="#5BD223" stop-opacity="0"/>
</linearGradient>
<linearGradient id="paint22_linear_25_108" x1="757.956" y1="801.138" x2="679.458" y2="807.397" gradientUnits="userSpaceOnUse">
<stop stop-color="#8ABD98" stop-opacity="0.54"/>
<stop offset="1" stop-color="#279F49"/>
</linearGradient>
<linearGradient id="paint23_linear_25_108" x1="757.048" y1="799.789" x2="704.691" y2="769.057" gradientUnits="userSpaceOnUse">
<stop stop-color="#5BD223" stop-opacity="0"/>
<stop offset="1" stop-color="#279F49"/>
</linearGradient>
<linearGradient id="paint24_linear_25_108" x1="745.483" y1="785.565" x2="666.497" y2="685.789" gradientUnits="userSpaceOnUse">
<stop stop-color="#279F49"/>
<stop offset="1" stop-color="#5BD223" stop-opacity="0"/>
</linearGradient>
<linearGradient id="paint25_linear_25_108" x1="743.598" y1="787.806" x2="744.27" y2="660.552" gradientUnits="userSpaceOnUse">
<stop stop-color="#279F49"/>
<stop offset="1" stop-color="#5BD223" stop-opacity="0"/>
</linearGradient>
<linearGradient id="paint26_linear_25_108" x1="794.134" y1="768.58" x2="723.947" y2="871" gradientUnits="userSpaceOnUse">
<stop stop-color="#8ABD98" stop-opacity="0.54"/>
<stop offset="1" stop-color="#279F49"/>
</linearGradient>
<linearGradient id="paint27_linear_25_108" x1="757.821" y1="844.451" x2="735.334" y2="790.989" gradientUnits="userSpaceOnUse">
<stop stop-color="#279F49"/>
<stop offset="1" stop-color="#5BD223" stop-opacity="0"/>
</linearGradient>
<linearGradient id="paint28_linear_25_108" x1="318.153" y1="614.399" x2="263.317" y2="504.333" gradientUnits="userSpaceOnUse">
<stop offset="0.0567511" stop-color="#E76F01"/>
<stop offset="1" stop-color="#E76F01" stop-opacity="0"/>
</linearGradient>
<linearGradient id="paint29_linear_25_108" x1="311.156" y1="613.559" x2="256.118" y2="503.544" gradientUnits="userSpaceOnUse">
<stop stop-color="#E76F01"/>
<stop offset="0.208333" stop-color="#D27723" stop-opacity="0"/>
</linearGradient>
<linearGradient id="paint30_linear_25_108" x1="273.563" y1="499.818" x2="201.961" y2="540.846" gradientUnits="userSpaceOnUse">
<stop stop-color="#8ABD98" stop-opacity="0.54"/>
<stop offset="1" stop-color="#279F49"/>
</linearGradient>
<linearGradient id="paint31_linear_25_108" x1="234.483" y1="542.727" x2="233.309" y2="499.302" gradientUnits="userSpaceOnUse">
<stop stop-color="#279F49"/>
<stop offset="1" stop-color="#5BD223" stop-opacity="0"/>
</linearGradient>
<linearGradient id="paint32_linear_25_108" x1="336.227" y1="545.393" x2="271.652" y2="500.324" gradientUnits="userSpaceOnUse">
<stop stop-color="#279F49"/>
<stop offset="1" stop-color="#8ABD98" stop-opacity="0.54"/>
</linearGradient>
<linearGradient id="paint33_linear_25_108" x1="336.383" y1="543.774" x2="315.503" y2="486.768" gradientUnits="userSpaceOnUse">
<stop stop-color="#279F49"/>
<stop offset="1" stop-color="#5BD223" stop-opacity="0"/>
</linearGradient>
<linearGradient id="paint34_linear_25_108" x1="345.833" y1="506.514" x2="267.439" y2="499.066" gradientUnits="userSpaceOnUse">
<stop stop-color="#279F49"/>
<stop offset="1" stop-color="#8ABD98" stop-opacity="0.54"/>
</linearGradient>
<linearGradient id="paint35_linear_25_108" x1="345.172" y1="505.028" x2="298.938" y2="465.683" gradientUnits="userSpaceOnUse">
<stop stop-color="#279F49"/>
<stop offset="1" stop-color="#5BD223" stop-opacity="0"/>
</linearGradient>
<linearGradient id="paint36_linear_25_108" x1="343.426" y1="473.342" x2="254.713" y2="497.622" gradientUnits="userSpaceOnUse">
<stop stop-color="#279F49"/>
<stop offset="1" stop-color="#8ABD98" stop-opacity="0.54"/>
</linearGradient>
<linearGradient id="paint37_linear_25_108" x1="342.089" y1="471.992" x2="275.619" y2="450.442" gradientUnits="userSpaceOnUse">
<stop stop-color="#279F49"/>
<stop offset="1" stop-color="#5BD223" stop-opacity="0"/>
</linearGradient>
<linearGradient id="paint38_linear_25_108" x1="271.956" y1="503.138" x2="193.458" y2="509.397" gradientUnits="userSpaceOnUse">
<stop stop-color="#8ABD98" stop-opacity="0.54"/>
<stop offset="1" stop-color="#279F49"/>
</linearGradient>
<linearGradient id="paint39_linear_25_108" x1="271.048" y1="501.789" x2="218.691" y2="471.057" gradientUnits="userSpaceOnUse">
<stop stop-color="#5BD223" stop-opacity="0"/>
<stop offset="1" stop-color="#279F49"/>
</linearGradient>
<linearGradient id="paint40_linear_25_108" x1="259.483" y1="487.565" x2="180.497" y2="387.789" gradientUnits="userSpaceOnUse">
<stop stop-color="#279F49"/>
<stop offset="1" stop-color="#5BD223" stop-opacity="0"/>
</linearGradient>
<linearGradient id="paint41_linear_25_108" x1="257.598" y1="489.806" x2="258.27" y2="362.552" gradientUnits="userSpaceOnUse">
<stop stop-color="#279F49"/>
<stop offset="1" stop-color="#5BD223" stop-opacity="0"/>
</linearGradient>
<linearGradient id="paint42_linear_25_108" x1="308.134" y1="470.58" x2="237.947" y2="573" gradientUnits="userSpaceOnUse">
<stop stop-color="#8ABD98" stop-opacity="0.54"/>
<stop offset="1" stop-color="#279F49"/>
</linearGradient>
<linearGradient id="paint43_linear_25_108" x1="271.821" y1="546.451" x2="249.334" y2="492.989" gradientUnits="userSpaceOnUse">
<stop stop-color="#279F49"/>
<stop offset="1" stop-color="#5BD223" stop-opacity="0"/>
</linearGradient>
<linearGradient id="paint44_linear_25_108" x1="1194.15" y1="387.399" x2="1139.32" y2="277.333" gradientUnits="userSpaceOnUse">
<stop offset="0.0567511" stop-color="#E76F01"/>
<stop offset="1" stop-color="#E76F01" stop-opacity="0"/>
</linearGradient>
<linearGradient id="paint45_linear_25_108" x1="1187.16" y1="386.559" x2="1132.12" y2="276.544" gradientUnits="userSpaceOnUse">
<stop stop-color="#E76F01"/>
<stop offset="0.208333" stop-color="#D27723" stop-opacity="0"/>
</linearGradient>
<linearGradient id="paint46_linear_25_108" x1="1149.56" y1="272.818" x2="1077.96" y2="313.846" gradientUnits="userSpaceOnUse">
<stop stop-color="#8ABD98" stop-opacity="0.54"/>
<stop offset="1" stop-color="#279F49"/>
</linearGradient>
<linearGradient id="paint47_linear_25_108" x1="1110.48" y1="315.727" x2="1109.31" y2="272.302" gradientUnits="userSpaceOnUse">
<stop stop-color="#279F49"/>
<stop offset="1" stop-color="#5BD223" stop-opacity="0"/>
</linearGradient>
<linearGradient id="paint48_linear_25_108" x1="1212.23" y1="318.393" x2="1147.65" y2="273.324" gradientUnits="userSpaceOnUse">
<stop stop-color="#279F49"/>
<stop offset="1" stop-color="#8ABD98" stop-opacity="0.54"/>
</linearGradient>
<linearGradient id="paint49_linear_25_108" x1="1212.38" y1="316.774" x2="1191.5" y2="259.768" gradientUnits="userSpaceOnUse">
<stop stop-color="#279F49"/>
<stop offset="1" stop-color="#5BD223" stop-opacity="0"/>
</linearGradient>
<linearGradient id="paint50_linear_25_108" x1="1221.83" y1="279.514" x2="1143.44" y2="272.066" gradientUnits="userSpaceOnUse">
<stop stop-color="#279F49"/>
<stop offset="1" stop-color="#8ABD98" stop-opacity="0.54"/>
</linearGradient>
<linearGradient id="paint51_linear_25_108" x1="1221.17" y1="278.028" x2="1174.94" y2="238.683" gradientUnits="userSpaceOnUse">
<stop stop-color="#279F49"/>
<stop offset="1" stop-color="#5BD223" stop-opacity="0"/>
</linearGradient>
<linearGradient id="paint52_linear_25_108" x1="1219.43" y1="246.342" x2="1130.71" y2="270.622" gradientUnits="userSpaceOnUse">
<stop stop-color="#279F49"/>
<stop offset="1" stop-color="#8ABD98" stop-opacity="0.54"/>
</linearGradient>
<linearGradient id="paint53_linear_25_108" x1="1218.09" y1="244.992" x2="1151.62" y2="223.442" gradientUnits="userSpaceOnUse">
<stop stop-color="#279F49"/>
<stop offset="1" stop-color="#5BD223" stop-opacity="0"/>
</linearGradient>
<linearGradient id="paint54_linear_25_108" x1="1147.96" y1="276.138" x2="1069.46" y2="282.397" gradientUnits="userSpaceOnUse">
<stop stop-color="#8ABD98" stop-opacity="0.54"/>
<stop offset="1" stop-color="#279F49"/>
</linearGradient>
<linearGradient id="paint55_linear_25_108" x1="1147.05" y1="274.789" x2="1094.69" y2="244.057" gradientUnits="userSpaceOnUse">
<stop stop-color="#5BD223" stop-opacity="0"/>
<stop offset="1" stop-color="#279F49"/>
</linearGradient>
<linearGradient id="paint56_linear_25_108" x1="1135.48" y1="260.565" x2="1056.5" y2="160.789" gradientUnits="userSpaceOnUse">
<stop stop-color="#279F49"/>
<stop offset="1" stop-color="#5BD223" stop-opacity="0"/>
</linearGradient>
<linearGradient id="paint57_linear_25_108" x1="1133.6" y1="262.806" x2="1134.27" y2="135.552" gradientUnits="userSpaceOnUse">
<stop stop-color="#279F49"/>
<stop offset="1" stop-color="#5BD223" stop-opacity="0"/>
</linearGradient>
<linearGradient id="paint58_linear_25_108" x1="1184.13" y1="243.58" x2="1113.95" y2="346" gradientUnits="userSpaceOnUse">
<stop stop-color="#8ABD98" stop-opacity="0.54"/>
<stop offset="1" stop-color="#279F49"/>
</linearGradient>
<linearGradient id="paint59_linear_25_108" x1="1147.82" y1="319.451" x2="1125.33" y2="265.989" gradientUnits="userSpaceOnUse">
<stop stop-color="#279F49"/>
<stop offset="1" stop-color="#5BD223" stop-opacity="0"/>
</linearGradient>
<linearGradient id="paint60_linear_25_108" x1="1159.15" y1="1099.4" x2="1104.32" y2="989.333" gradientUnits="userSpaceOnUse">
<stop offset="0.0567511" stop-color="#E76F01"/>
<stop offset="1" stop-color="#E76F01" stop-opacity="0"/>
</linearGradient>
<linearGradient id="paint61_linear_25_108" x1="1152.16" y1="1098.56" x2="1097.12" y2="988.544" gradientUnits="userSpaceOnUse">
<stop stop-color="#E76F01"/>
<stop offset="0.208333" stop-color="#D27723" stop-opacity="0"/>
</linearGradient>
<linearGradient id="paint62_linear_25_108" x1="1114.56" y1="984.818" x2="1042.96" y2="1025.85" gradientUnits="userSpaceOnUse">
<stop stop-color="#8ABD98" stop-opacity="0.54"/>
<stop offset="1" stop-color="#279F49"/>
</linearGradient>
<linearGradient id="paint63_linear_25_108" x1="1075.48" y1="1027.73" x2="1074.31" y2="984.302" gradientUnits="userSpaceOnUse">
<stop stop-color="#279F49"/>
<stop offset="1" stop-color="#5BD223" stop-opacity="0"/>
</linearGradient>
<linearGradient id="paint64_linear_25_108" x1="1177.23" y1="1030.39" x2="1112.65" y2="985.324" gradientUnits="userSpaceOnUse">
<stop stop-color="#279F49"/>
<stop offset="1" stop-color="#8ABD98" stop-opacity="0.54"/>
</linearGradient>
<linearGradient id="paint65_linear_25_108" x1="1177.38" y1="1028.77" x2="1156.5" y2="971.768" gradientUnits="userSpaceOnUse">
<stop stop-color="#279F49"/>
<stop offset="1" stop-color="#5BD223" stop-opacity="0"/>
</linearGradient>
<linearGradient id="paint66_linear_25_108" x1="1186.83" y1="991.514" x2="1108.44" y2="984.066" gradientUnits="userSpaceOnUse">
<stop stop-color="#279F49"/>
<stop offset="1" stop-color="#8ABD98" stop-opacity="0.54"/>
</linearGradient>
<linearGradient id="paint67_linear_25_108" x1="1186.17" y1="990.028" x2="1139.94" y2="950.683" gradientUnits="userSpaceOnUse">
<stop stop-color="#279F49"/>
<stop offset="1" stop-color="#5BD223" stop-opacity="0"/>
</linearGradient>
<linearGradient id="paint68_linear_25_108" x1="1184.43" y1="958.342" x2="1095.71" y2="982.622" gradientUnits="userSpaceOnUse">
<stop stop-color="#279F49"/>
<stop offset="1" stop-color="#8ABD98" stop-opacity="0.54"/>
</linearGradient>
<linearGradient id="paint69_linear_25_108" x1="1183.09" y1="956.992" x2="1116.62" y2="935.442" gradientUnits="userSpaceOnUse">
<stop stop-color="#279F49"/>
<stop offset="1" stop-color="#5BD223" stop-opacity="0"/>
</linearGradient>
<linearGradient id="paint70_linear_25_108" x1="1112.96" y1="988.138" x2="1034.46" y2="994.397" gradientUnits="userSpaceOnUse">
<stop stop-color="#8ABD98" stop-opacity="0.54"/>
<stop offset="1" stop-color="#279F49"/>
</linearGradient>
<linearGradient id="paint71_linear_25_108" x1="1112.05" y1="986.789" x2="1059.69" y2="956.057" gradientUnits="userSpaceOnUse">
<stop stop-color="#5BD223" stop-opacity="0"/>
<stop offset="1" stop-color="#279F49"/>
</linearGradient>
<linearGradient id="paint72_linear_25_108" x1="1100.48" y1="972.565" x2="1021.5" y2="872.789" gradientUnits="userSpaceOnUse">
<stop stop-color="#279F49"/>
<stop offset="1" stop-color="#5BD223" stop-opacity="0"/>
</linearGradient>
<linearGradient id="paint73_linear_25_108" x1="1098.6" y1="974.806" x2="1099.27" y2="847.552" gradientUnits="userSpaceOnUse">
<stop stop-color="#279F49"/>
<stop offset="1" stop-color="#5BD223" stop-opacity="0"/>
</linearGradient>
<linearGradient id="paint74_linear_25_108" x1="1149.13" y1="955.58" x2="1078.95" y2="1058" gradientUnits="userSpaceOnUse">
<stop stop-color="#8ABD98" stop-opacity="0.54"/>
<stop offset="1" stop-color="#279F49"/>
</linearGradient>
<linearGradient id="paint75_linear_25_108" x1="1112.82" y1="1031.45" x2="1090.33" y2="977.989" gradientUnits="userSpaceOnUse">
<stop stop-color="#279F49"/>
<stop offset="1" stop-color="#5BD223" stop-opacity="0"/>
</linearGradient>
</defs>
</svg>
