<?xml version="1.0" encoding="UTF-8" standalone="no"?>
<!-- Created with Inkscape (http://www.inkscape.org/) -->

<svg
   width="210mm"
   height="297mm"
   viewBox="0 0 210 297"
   version="1.1"
   id="svg5"
   xmlns="http://www.w3.org/2000/svg"
   xmlns:svg="http://www.w3.org/2000/svg">
  <defs
     id="defs2" />
  <g
     id="layer1">
    <path
       id="path111"
       style="color:#000000;fill:#ffcc00;-inkscape-stroke:none"
       d="M 157.11341 152.56898 L 170.04543 160.03519 C 175.79512 149.81798 179.08209 138.04139 179.08209 125.51585 C 179.08209 86.841646 147.78417 55.286517 109.20884 54.857633 L 109.20884 69.857751 C 139.67247 70.2808 164.08197 94.948308 164.08197 125.51585 C 164.08197 135.34798 161.55324 144.56756 157.11341 152.56898 z " />
    <path
       id="path4056"
       style="color:#000000;fill:#ff1c1c;-inkscape-stroke:none"
       d="M 60.321383 153.63558 L 47.39349 161.09973 C 59.673105 182.06116 82.437029 196.18337 108.41405 196.18337 C 134.47255 196.18337 157.29934 181.9735 169.55141 160.90336 L 156.62248 153.43921 C 147.00975 170.05037 129.05724 181.18377 108.41405 181.18377 C 87.852615 181.18377 69.961763 170.13765 60.321383 153.63558 z " />
    <path
       id="path4052"
       style="color:#000000;fill:#00ff00;-inkscape-stroke:none"
       d="M 108.2089 54.850399 C 69.363024 54.961888 37.746016 86.644536 37.746016 125.51585 C 37.746016 138.12213 41.07454 149.97035 46.893262 160.23311 L 59.824772 152.7669 C 55.316498 144.71982 52.746134 135.4291 52.746134 125.51585 C 52.746134 94.751141 77.470921 69.960172 108.2089 69.85 L 108.2089 54.850399 z " />
  </g>
</svg>
