<svg width="32768" height="25603" viewBox="0 0 32768 25603" fill="none" xmlns="http://www.w3.org/2000/svg">
<rect x="28274" y="19019.1" width="4494.02" height="6583.19" fill="url(#paint0_linear_22_20)"/>
<path d="M31030.1 24977.7C30945 25087.7 30602.5 25387.6 30442 25523.9C30350.7 25451.8 30168.1 25274.6 30168.1 25142.6C30070 25261.9 29856.6 25505.1 29787.8 25523.9C29719.1 25542.6 29625.1 25437.4 29586.7 25382.4C29538.3 25438.6 29424.8 25538.4 29358 25488.3C29291.1 25438.2 29141.7 25237 29075.3 25142.6C29016.5 25265.8 28849 25520 28649.9 25551.4L32507.9 25602.3L32331.4 25500C32269.5 25536.6 32102.8 25588 31930.9 25500C31758.9 25412 31640.5 25138.6 31602.8 25012.9C31526.8 25141.6 31320.7 25219.9 31227.2 25243C31151.1 25148.7 31077 25046.2 31030.1 24977.7Z" fill="url(#paint1_linear_22_20)"/>
<path d="M31720.3 25500C31675.9 25508 31561.6 25513.6 31460.3 25472.5C31405.9 25450.5 31315.2 25352.2 31227.2 25243M31227.2 25243C31151.1 25148.7 31077 25046.2 31030.1 24977.7C30945 25087.7 30602.5 25387.6 30442 25523.9C30350.7 25451.8 30168.1 25274.6 30168.1 25142.6C30070 25261.9 29856.6 25505.1 29787.8 25523.9C29719.1 25542.6 29625.1 25437.4 29586.7 25382.4C29538.3 25438.6 29424.8 25538.4 29358 25488.3C29291.1 25438.2 29141.7 25237 29075.3 25142.6C29016.5 25265.8 28849 25520 28649.9 25551.4L32507.9 25602.3L32331.4 25500C32269.5 25536.6 32102.8 25588 31930.9 25500C31758.9 25412 31640.5 25138.6 31602.8 25012.9C31526.8 25141.6 31320.7 25219.9 31227.2 25243Z" stroke="#52162C"/>
<path d="M28404.8 19491.1L28409.5 19505.4H28424.6L28412.4 19514.3L28417 19528.7L28404.8 19519.8L28392.6 19528.7L28397.3 19514.3L28385.1 19505.4H28400.2L28404.8 19491.1Z" fill="#D9D9D9"/>
<path d="M30207.4 20037.6L30212.1 20052H30227.2L30215 20060.8L30219.6 20075.2L30207.4 20066.3L30195.2 20075.2L30199.9 20060.8L30187.7 20052H30202.7L30207.4 20037.6Z" fill="#D9D9D9"/>
<path d="M31619.6 20192.9L31624.2 20207.2H31639.3L31627.1 20216.1L31631.8 20230.5L31619.6 20221.6L31607.4 20230.5L31612 20216.1L31599.8 20207.2H31614.9L31619.6 20192.9Z" fill="#D9D9D9"/>
<path d="M29493 21925.6L29497.7 21940H29512.8L29500.6 21948.9L29505.2 21963.2L29493 21954.3L29480.8 21963.2L29485.5 21948.9L29473.3 21940H29488.4L29493 21925.6Z" fill="#D9D9D9"/>
<path d="M28616.6 21733.1L28621.3 21747.5H28636.4L28624.2 21756.3L28628.8 21770.7L28616.6 21761.8L28604.4 21770.7L28609.1 21756.3L28596.9 21747.5H28612L28616.6 21733.1Z" fill="#D9D9D9"/>
<path d="M32363 20664.9L32367.7 20679.2H32382.8L32370.6 20688.1L32375.2 20702.5L32363 20693.6L32350.8 20702.5L32355.5 20688.1L32343.3 20679.2H32358.4L32363 20664.9Z" fill="#D9D9D9"/>
<path d="M30373.5 24141.3L30378.2 24155.6H30393.3L30381.1 24164.5L30385.8 24178.8L30373.5 24170L30361.3 24178.8L30366 24164.5L30353.8 24155.6H30368.9L30373.5 24141.3Z" fill="#D9D9D9"/>
<path d="M29547 19807.8L29551.7 19822.2H29566.8L29554.6 19831.1L29559.2 19845.4L29547 19836.5L29534.8 19845.4L29539.5 19831.1L29527.3 19822.2H29542.3L29547 19807.8Z" fill="#D9D9D9"/>
<path d="M32309 23136.7L32313.7 23151H32328.8L32316.6 23159.9L32321.3 23174.3L32309 23165.4L32296.8 23174.3L32301.5 23159.9L32289.3 23151H32304.4L32309 23136.7Z" fill="#D9D9D9"/>
<path d="M28820.2 23465.9L28824.8 23480.2H28839.9L28827.7 23489.1L28832.4 23503.4L28820.2 23494.6L28808 23503.4L28812.6 23489.1L28800.4 23480.2H28815.5L28820.2 23465.9Z" fill="#D9D9D9"/>
<path d="M31004.9 20857.4L31009.5 20871.8H31024.6L31012.4 20880.6L31017.1 20895L31004.9 20886.1L30992.7 20895L30997.3 20880.6L30985.1 20871.8H31000.2L31004.9 20857.4Z" fill="#D9D9D9"/>
<path d="M30805.5 22944.2L30810.2 22958.5H30825.3L30813 22967.4L30817.7 22981.7L30805.5 22972.9L30793.3 22981.7L30798 22967.4L30785.8 22958.5H30800.8L30805.5 22944.2Z" fill="#D9D9D9"/>
<path d="M31378.7 21733.1L31383.3 21747.5H31398.4L31386.2 21756.3L31390.9 21770.7L31378.7 21761.8L31366.5 21770.7L31371.1 21756.3L31358.9 21747.5H31374L31378.7 21733.1Z" fill="#D9D9D9"/>
<path d="M29036.1 20857.4L29040.8 20871.8H29055.9L29043.7 20880.6L29048.3 20895L29036.1 20886.1L29023.9 20895L29028.6 20880.6L29016.4 20871.8H29031.5L29036.1 20857.4Z" fill="#D9D9D9"/>
<path d="M30153.4 21733.1L30158.1 21747.5H30173.2L30161 21756.3L30165.6 21770.7L30153.4 21761.8L30141.2 21770.7L30145.9 21756.3L30133.7 21747.5H30148.8L30153.4 21733.1Z" fill="#D9D9D9"/>
<path d="M29524.2 23621.1L29530 23639.1H29548.9L29533.6 23650.1L29539.4 23668.1L29524.2 23657L29508.9 23668.1L29514.7 23650.1L29499.5 23639.1H29518.3L29524.2 23621.1Z" fill="#D9D9D9"/>
<path d="M32534.4 21879.1L32540.2 21897H32559.1L32543.8 21908.1L32549.6 21926L32534.4 21914.9L32519.1 21926L32524.9 21908.1L32509.7 21897H32528.5L32534.4 21879.1Z" fill="#D9D9D9"/>
<path d="M28541.9 24141.3L28547.7 24159.2H28566.6L28551.3 24170.3L28557.1 24188.2L28541.9 24177.1L28526.6 24188.2L28532.5 24170.3L28517.2 24159.2H28536.1L28541.9 24141.3Z" fill="#D9D9D9"/>
<path d="M31202.2 22310.7L31208 22328.6H31226.8L31211.6 22339.7L31217.4 22357.7L31202.2 22346.6L31186.9 22357.7L31192.7 22339.7L31177.5 22328.6H31196.3L31202.2 22310.7Z" fill="#D9D9D9"/>
<path d="M30730.7 19745.7L30736.6 19763.7H30755.4L30740.2 19774.8L30746 19792.7L30730.7 19781.6L30715.5 19792.7L30721.3 19774.8L30706.1 19763.7H30724.9L30730.7 19745.7Z" fill="#D9D9D9"/>
<path d="M32260.2 24380.4L32266.1 24398.3H32284.9L32269.7 24409.4L32275.5 24427.3L32260.2 24416.2L32245 24427.3L32250.8 24409.4L32235.6 24398.3H32254.4L32260.2 24380.4Z" fill="#D9D9D9"/>
<path d="M29013.3 22164.7L29019.1 22182.7H29038L29022.7 22193.8L29028.6 22211.7L29013.3 22200.6L28998 22211.7L29003.9 22193.8L28988.6 22182.7H29007.5L29013.3 22164.7Z" fill="#D9D9D9"/>
<path d="M32041.1 21596.5L32047 21614.4H32065.8L32050.6 21625.5L32056.4 21643.4L32041.1 21632.4L32025.9 21643.4L32031.7 21625.5L32016.5 21614.4H32035.3L32041.1 21596.5Z" fill="#D9D9D9"/>
<path d="M30756.7 21733.1L30762.5 21751H30781.4L30766.1 21762.1L30772 21780.1L30756.7 21769L30741.4 21780.1L30747.3 21762.1L30732 21751H30750.9L30756.7 21733.1Z" fill="#D9D9D9"/>
<path d="M31584.8 23475.2L31590.6 23493.1H31609.5L31594.2 23504.2L31600 23522.1L31584.8 23511L31569.5 23522.1L31575.4 23504.2L31560.1 23493.1H31579L31584.8 23475.2Z" fill="#D9D9D9"/>
<path d="M30022.6 23621.1L30028.4 23639.1H30047.3L30032 23650.1L30037.8 23668.1L30022.6 23657L30007.3 23668.1L30013.1 23650.1L29997.9 23639.1H30016.8L30022.6 23621.1Z" fill="#D9D9D9"/>
<path d="M2.07672 14143C3698.25 12405.7 11239.5 7991.71 11835.1 4233.79C12430.7 475.867 16071.7 -136.372 17817.7 27.248" stroke="black" stroke-width="14"/>
<path d="M2.07672 13611.3C3470.76 11939.4 10547.9 7691.36 11106.8 4074.74C11665.8 458.111 15082.6 -131.108 16721.2 26.3601" stroke="black" stroke-width="14"/>
<path d="M2.07672 13146.1C3270.84 11531.4 9940.06 7428.55 10466.8 3935.56C10993.6 442.575 14213.5 -126.502 15757.6 25.5832" stroke="black" stroke-width="14"/>
<path d="M2.07672 12570.4C3071.57 11026.3 9334.22 7103.27 9828.86 3763.31C10323.5 423.345 13347.1 -120.801 14797.1 24.6216" stroke="black" stroke-width="14"/>
<path d="M2.07672 11833.1C2877.9 10379.7 8745.42 6686.76 9208.85 3542.74C9672.28 398.722 12505.1 -113.501 13863.6 23.3904" stroke="black" stroke-width="14"/>
<path d="M2.07672 11359.1C2664.2 9963.91 8095.7 6418.97 8524.69 3400.93C8953.69 382.891 11576 -108.807 12833.6 22.5988" stroke="black" stroke-width="14"/>
<path d="M2.07672 10687.3C2471.18 9374.63 7508.86 6039.42 7906.75 3199.94C8304.64 360.453 10736.9 -102.155 11903.2 21.4768" stroke="black" stroke-width="14"/>
<path d="M2.07672 9923.07C2291.95 8704.3 6963.94 5607.67 7332.94 2971.3C7701.95 334.929 9957.6 -94.5874 11039.3 20.2004" stroke="black" stroke-width="14"/>
<defs>
<linearGradient id="paint0_linear_22_20" x1="30521" y1="19019.1" x2="30521" y2="25602.3" gradientUnits="userSpaceOnUse">
<stop stop-color="#430B26"/>
<stop offset="1" stop-color="#812043"/>
</linearGradient>
<linearGradient id="paint1_linear_22_20" x1="31127.5" y1="24733.9" x2="30933.4" y2="25421" gradientUnits="userSpaceOnUse">
<stop stop-color="#EA4160"/>
<stop offset="1" stop-color="#52162C"/>
</linearGradient>
</defs>
</svg>
